<svg width="128" height="128" viewBox="0 0 128 128" xmlns="http://www.w3.org/2000/svg">
  <defs>
    <linearGradient id="avatarGradient" x1="50%" x2="50%" y1="0%" y2="100%">
      <stop offset="0%" stop-color="#d9d9d9"/>
      <stop offset="100%" stop-color="#bfbfbf"/>
    </linearGradient>
  </defs>
  <g fill="none" fill-rule="evenodd">
    <circle cx="64" cy="64" r="64" fill="url(#avatarGradient)"/>
    <g fill="#f5f5f5">
      <circle cx="64" cy="50" r="24"/>
      <path d="M32 101.5c0-17.949 14.551-32.5 32.5-32.5h1c17.949 0 32.5 14.551 32.5 32.5V112H32z" opacity=".85"/>
    </g>
  </g>
</svg>
<svg width="256" height="256" viewBox="0 0 256 256" xmlns="http://www.w3.org/2000/svg">
  <defs>
    <linearGradient id="avatarGradient" x1="0%" y1="0%" x2="100%" y2="100%">
      <stop offset="0%" stop-color="#f2f4f8"/>
      <stop offset="100%" stop-color="#d5dae3"/>
    </linearGradient>
    <radialGradient id="avatarInner" cx="50%" cy="38%" r="58%">
      <stop offset="0%" stop-color="#fdfdfd"/>
      <stop offset="55%" stop-color="#e9edf2"/>
      <stop offset="100%" stop-color="#cfd5df"/>
    </radialGradient>
  </defs>
  <rect width="256" height="256" rx="128" fill="url(#avatarGradient)"/>
  <circle cx="128" cy="98" r="58" fill="url(#avatarInner)"/>
  <path d="M128 148c-52 0-90 30-98 76 33 20 72 32 114 32s81-12 114-32c-8-46-46-76-98-76z" fill="url(#avatarInner)"/>
</svg>

